<svg width="20" height="20" viewBox="0 0 33 33" fill="none" xmlns="http://www.w3.org/2000/svg">
    <path d="M16.2 11.7C18.684 11.7 20.7 13.716 20.7 16.2C20.7 18.684 18.684 20.7 16.2 20.7C13.716 20.7 11.7 18.684 11.7 16.2C11.7 13.716 13.716 11.7 16.2 11.7ZM16.2 9C12.222 9 9 12.222 9 16.2C9 20.178 12.222 23.4 16.2 23.4C20.178 23.4 23.4 20.178 23.4 16.2C23.4 12.222 20.178 9 16.2 9ZM4.95 17.55C5.688 17.55 6.3 16.938 6.3 16.2C6.3 15.462 5.688 14.85 4.95 14.85H1.35C0.612 14.85 0 15.462 0 16.2C0 16.938 0.612 17.55 1.35 17.55H4.95ZM31.05 17.55C31.788 17.55 32.4 16.938 32.4 16.2C32.4 15.462 31.788 14.85 31.05 14.85H27.45C26.712 14.85 26.1 15.462 26.1 16.2C26.1 16.938 26.712 17.55 27.45 17.55H31.05ZM14.85 4.95C14.85 5.688 15.462 6.3 16.2 6.3C16.938 6.3 17.55 5.688 17.55 4.95V1.35C17.55 0.612 16.938 0 16.2 0C15.462 0 14.85 0.612 14.85 1.35V4.95ZM23.202 7.29C22.68 7.812 22.68 8.676 23.202 9.198C23.724 9.72 24.588 9.72 25.11 9.198L27.018 7.29C27.54 6.768 27.54 5.904 27.018 5.382C26.496 4.86 25.632 4.86 25.11 5.382L23.202 7.29ZM5.382 25.11C4.86 25.632 4.86 26.496 5.382 27.018C5.904 27.54 6.768 27.54 7.29 27.018L9.198 25.11C9.72 24.588 9.72 23.724 9.198 23.202C8.676 22.68 7.812 22.68 7.29 23.202L5.382 25.11ZM7.29 9.198C7.812 9.72 8.676 9.72 9.198 9.198C9.72 8.676 9.72 7.812 9.198 7.29L7.29 5.382C6.768 4.86 5.904 4.86 5.382 5.382C4.86 5.904 4.86 6.768 5.382 7.29L7.29 9.198ZM25.11 27.018C25.632 27.54 26.496 27.54 27.018 27.018C27.54 26.496 27.54 25.632 27.018 25.11L25.11 23.202C24.588 22.68 23.724 22.68 23.202 23.202C22.68 23.724 22.68 24.588 23.202 25.11L25.11 27.018ZM14.85 31.05C14.85 31.788 15.462 32.4 16.2 32.4C16.938 32.4 17.55 31.788 17.55 31.05V27.45C17.55 26.712 16.938 26.1 16.2 26.1C15.462 26.1 14.85 26.712 14.85 27.45V31.05Z" fill="white"/>
</svg>